<svg xmlns="http://www.w3.org/2000/svg" version="1.1" xmlns:xlink="http://www.w3.org/1999/xlink" width="512" height="512" x="0" y="0" viewBox="0 0 409.6 409.6" style="enable-background:new 0 0 512 512" xml:space="preserve"><g><path d="M404.48 373.576h-9.948V352a5.119 5.119 0 0 0-5.12-5.12h-5.652V66.616h7.552a5.119 5.119 0 0 0 5.12-5.12V35.84a5.119 5.119 0 0 0-5.12-5.12h-77.553V5.12a5.119 5.119 0 0 0-5.12-5.12h-34.985a5.119 5.119 0 0 0-5.12 5.12v25.6H256.43V5.12A5.119 5.119 0 0 0 251.31 0h-34.985a5.119 5.119 0 0 0-5.12 5.12v25.6h-77.558a5.119 5.119 0 0 0-5.12 5.12v25.656a5.119 5.119 0 0 0 5.12 5.12h7.552v57.001c-7.982-6.308-18.273-10.122-29.512-10.122-25.226 0-45.752 19.2-45.752 42.793 0 5.125.973 10.133 2.898 14.925a49.274 49.274 0 0 0-4.25 6.241c-4.772-2.099-9.999-3.261-15.304-3.261-19.927 0-36.137 15.201-36.137 33.879 0 3.835.686 7.583 2.043 11.192-5.192 6.707-8.018 14.797-8.018 23.112 0 4.721.896 9.329 2.667 13.747-5.955 7.716-9.195 17.044-9.195 26.609 0 23.496 19.159 42.885 43.643 45.235l.133 45.609H5.12a5.119 5.119 0 0 0-5.12 5.12v25.784a5.119 5.119 0 0 0 5.12 5.12h399.36a5.119 5.119 0 0 0 5.12-5.12v-25.784a5.118 5.118 0 0 0-5.12-5.12zm-20.188-16.456v16.456H140.667V357.12h243.625zm-248.745-10.24a5.119 5.119 0 0 0-5.12 5.12v21.576H117.14l-.195-61.752c8.714-.686 16.927-3.016 24.253-6.723v41.779h-5.651zm19-175.662a39.834 39.834 0 0 0 2.898-14.925c0-.732-.015-1.459-.056-2.171-.379-7.086-2.586-13.691-6.175-19.436.087-.379.23-.737.23-1.142V66.616h222.075V346.88h-51.768v-98.022a5.119 5.119 0 0 0-5.12-5.12H209.275a5.119 5.119 0 0 0-5.12 5.12v98.022h-52.716v-48.031c0-.077-.041-.138-.041-.215 13.691-10.644 22.426-26.66 22.426-44.554 0-11.587-3.656-22.774-10.573-32.358a60.569 60.569 0 0 0-1.71-2.243c2.478-5.852 3.732-11.981 3.732-18.258.001-10.829-3.788-21.36-10.726-30.003zm156.964 82.76v92.902h-43.438v-92.902h43.438zm-53.683 92.902h-43.433v-92.902h43.433v92.902zm20.941-336.64h24.745v20.48h-24.745V10.24zm-57.329 0h24.745v20.48H221.44V10.24zm-82.673 46.136V40.96h247.424v15.416H138.767zM72.422 217.969c-2.703-5.335-4.076-10.972-4.076-16.753 0-9.364 3.64-18.478 10.25-25.672a5.124 5.124 0 0 0 .814-5.755c-2.15-4.306-3.241-8.847-3.241-13.507.005-17.94 15.939-32.548 35.517-32.548 18.964 0 34.545 13.583 35.466 30.945.031.532.041 1.07.041 1.608 0 4.659-1.091 9.201-3.241 13.507a5.106 5.106 0 0 0 .814 5.755c6.615 7.188 10.255 16.307 10.255 25.672 0 5.786-1.372 11.418-4.076 16.753a5.12 5.12 0 0 0 .753 5.734 49.258 49.258 0 0 1 3.241 4.009c5.647 7.823 8.637 16.947 8.637 26.363 0 24.704-20.5 45.082-46.669 47.503l-.082-24.975 18.232-18.232a5.115 5.115 0 0 0 0-7.24 5.115 5.115 0 0 0-7.24 0l-11.039 11.039-.067-21.069a5.119 5.119 0 0 0-5.12-5.105h-.015a5.122 5.122 0 0 0-5.105 5.135l.067 20.301-10.301-10.301a5.115 5.115 0 0 0-7.24 0 5.115 5.115 0 0 0 0 7.24l17.587 17.587.082 25.631c-26.266-2.33-46.879-22.743-46.879-47.514 0-11.054 4.219-21.847 11.873-30.377a5.112 5.112 0 0 0 .762-5.734zm34.479 155.607H54.656l-.133-45.67c14.085-1.423 26.901-8.504 34.98-19.599.026-.031.026-.072.046-.108a65.462 65.462 0 0 0 17.157 3.635l.195 61.742zm-62.715-78.3.067 22.359c-18.801-2.278-33.372-17.044-33.372-34.903 0-8.146 3.108-16.097 8.75-22.38a5.122 5.122 0 0 0 .758-5.734c-1.976-3.901-2.98-8.018-2.98-12.242 0-6.845 2.668-13.512 7.506-18.775a5.125 5.125 0 0 0 .814-5.755c-1.556-3.113-2.345-6.4-2.345-9.769 0-13.036 11.617-23.639 25.897-23.639 3.881 0 7.69.84 11.156 2.36-1.505 4.649-2.325 9.503-2.325 14.428 0 6.282 1.254 12.411 3.727 18.258-7.946 9.964-12.283 22.129-12.283 34.606 0 21.14 12.221 39.619 30.377 49.751-6.2 7.573-15.329 12.513-25.441 13.783l-.067-22.38a5.116 5.116 0 0 0-5.12-5.105h-.015a5.12 5.12 0 0 0-5.104 5.137zM399.36 399.36H10.24v-15.544h389.12v15.544z" fill="#b97713" opacity="1" data-original="#b97713"></path><path d="M315.679 169.354h-32.527a5.119 5.119 0 0 0-5.12 5.12v45.117a5.122 5.122 0 0 0 5.12 5.12h32.527a5.119 5.119 0 0 0 5.12-5.12v-45.117a5.119 5.119 0 0 0-5.12-5.12zm-5.12 45.118h-22.287v-34.877h22.287v34.877zM315.679 95.222h-32.527a5.119 5.119 0 0 0-5.12 5.12v45.117a5.119 5.119 0 0 0 5.12 5.12h32.527a5.119 5.119 0 0 0 5.12-5.12v-45.117a5.118 5.118 0 0 0-5.12-5.12zm-5.12 45.122h-22.287v-34.877h22.287v34.877zM240.855 169.354h-32.527a5.119 5.119 0 0 0-5.12 5.12v45.117a5.122 5.122 0 0 0 5.12 5.12h32.527a5.119 5.119 0 0 0 5.12-5.12v-45.117a5.119 5.119 0 0 0-5.12-5.12zm-5.12 45.118h-22.287v-34.877h22.287v34.877zM240.855 95.222h-32.527a5.119 5.119 0 0 0-5.12 5.12v45.117a5.119 5.119 0 0 0 5.12 5.12h32.527a5.119 5.119 0 0 0 5.12-5.12v-45.117a5.118 5.118 0 0 0-5.12-5.12zm-5.12 45.122h-22.287v-34.877h22.287v34.877z" fill="#b97713" opacity="1" data-original="#b97713"></path></g></svg>