<svg xmlns="http://www.w3.org/2000/svg" version="1.1" xmlns:xlink="http://www.w3.org/1999/xlink" width="512" height="512" x="0" y="0" viewBox="0 0 128 128" style="enable-background:new 0 0 512 512" xml:space="preserve"><g><path d="M126 59.879V30.913a2 2 0 0 0-1.613-1.962l-96-19.913A2 2 0 0 0 26 11v10a2 2 0 0 0 1.623 1.964L34 24.187v5.692H2a2 2 0 0 0-2 2v8a2 2 0 0 0 2 2h8v34H6a2 2 0 0 0-2 2v29.12H2a2 2 0 0 0-2 2v8a2 2 0 0 0 2 2h124a2 2 0 0 0 2-2v-8a2 2 0 0 0-2-2h-1V71.88h1a2 2 0 0 0 2-2v-8a2 2 0 0 0-2-2zM30 19.347v-5.914l92 19.125v27.32h-4v-22a2 2 0 0 0-1.623-1.963zm84 20.185V59.88H38V24.954zM4 37.88v-4h30v4zm16 34h41v35.12h-4V77.88a2 2 0 0 0-2-2H14v-34h20v18H20a2 2 0 0 0-2 2v8a2 2 0 0 0 2 2zm-12 8h45v27.12H34V91.88a2 2 0 0 0 0-4H14a2 2 0 0 0 0 4v15.12H8zm22 12v15.12H18V91.88zm94 23.12H4v-4h120zm-59-8V71.88h4v35.12zm48-27.12v4H73v-4zm-40-4v-4h40v4zm40 12v4H73v-4zm0 8v4H73v-4zm0 8v3.12H73v-3.12zm4 3.12V71.88h4v35.12zm7-39.12H22v-4h102z" fill="#b97713" opacity="1" data-original="#b97713"></path><path d="M44 56h42a2 2 0 0 0 2-2V40a2 2 0 0 0-2-2H44a2 2 0 0 0-2 2v14a2 2 0 0 0 2 2zm30-14h10v10H74zm-14 0h10v10H60zm-14 0h10v10H46z" fill="#b97713" opacity="1" data-original="#b97713"></path></g></svg>